<svg xmlns="http://www.w3.org/2000/svg" width="980" height="500" viewBox="0 0 980 500">
<rect width="100%" height="100%" fill="#ffffff"/>
<style>
text { font-family: Arial, Helvetica, sans-serif; fill: #222; }
.title { font-size: 20px; font-weight: 700; }
.axis { font-size: 12px; fill: #555; }
.label { font-size: 12px; }
.small { font-size: 11px; fill: #555; }
.grid { stroke: #ddd; stroke-width: 1; }
</style>
<text class="title" x="28" y="36">EXP16B Grok reasoning adaptation search</text>
<line class="grid" x1="70" y1="380.0" x2="952" y2="380.0"/>
<text class="axis" x="62" y="384.0" text-anchor="end">0.0</text>
<line class="grid" x1="70" y1="317.6" x2="952" y2="317.6"/>
<text class="axis" x="62" y="321.6" text-anchor="end">0.2</text>
<line class="grid" x1="70" y1="255.2" x2="952" y2="255.2"/>
<text class="axis" x="62" y="259.2" text-anchor="end">0.4</text>
<line class="grid" x1="70" y1="192.8" x2="952" y2="192.8"/>
<text class="axis" x="62" y="196.8" text-anchor="end">0.6</text>
<line class="grid" x1="70" y1="130.4" x2="952" y2="130.4"/>
<text class="axis" x="62" y="134.4" text-anchor="end">0.8</text>
<line class="grid" x1="70" y1="68.0" x2="952" y2="68.0"/>
<text class="axis" x="62" y="72.0" text-anchor="end">1.0</text>
<rect x="70.0" y="341.0" width="162.0" height="39.0" fill="#b07aa1"/>
<text class="small" x="151.0" y="336.0" text-anchor="middle">0.12</text>
<text class="axis" transform="translate(151.0,438) rotate(-35)" text-anchor="end">grok_v1_final_json</text>
<rect x="250.0" y="331.2" width="162.0" height="48.8" fill="#b07aa1"/>
<text class="small" x="331.0" y="326.2" text-anchor="middle">0.16</text>
<text class="axis" transform="translate(331.0,438) rotate(-35)" text-anchor="end">grok_v2_template_lock</text>
<rect x="430.0" y="341.0" width="162.0" height="39.0" fill="#b07aa1"/>
<text class="small" x="511.0" y="336.0" text-anchor="middle">0.12</text>
<text class="axis" transform="translate(511.0,438) rotate(-35)" text-anchor="end">grok_v3_patch_min</text>
<rect x="610.0" y="204.5" width="162.0" height="175.5" fill="#b07aa1"/>
<text class="small" x="691.0" y="199.5" text-anchor="middle">0.56</text>
<text class="axis" transform="translate(691.0,438) rotate(-35)" text-anchor="end">grok_v4_schema_echo</text>
<rect x="790.0" y="194.8" width="162.0" height="185.2" fill="#b07aa1"/>
<text class="small" x="871.0" y="189.8" text-anchor="middle">0.59</text>
<text class="axis" transform="translate(871.0,438) rotate(-35)" text-anchor="end">grok_v5_two_phase_hidden</text>
</svg>
