<svg xmlns="http://www.w3.org/2000/svg" width="980" height="204" viewBox="0 0 980 204">
<rect width="100%" height="100%" fill="#ffffff"/>
<style>
text { font-family: Arial, Helvetica, sans-serif; fill: #222; }
.title { font-size: 20px; font-weight: 700; }
.axis { font-size: 12px; fill: #555; }
.label { font-size: 12px; }
.small { font-size: 11px; fill: #555; }
.grid { stroke: #ddd; stroke-width: 1; }
</style>
<text class="title" x="28" y="34">EXP16B terminal failure classes</text>
<line class="grid" x1="270.0" y1="50" x2="270.0" y2="160"/>
<text class="axis" x="270.0" y="186" text-anchor="middle">0</text>
<line class="grid" x1="398.0" y1="50" x2="398.0" y2="160"/>
<text class="axis" x="398.0" y="186" text-anchor="middle">17</text>
<line class="grid" x1="526.0" y1="50" x2="526.0" y2="160"/>
<text class="axis" x="526.0" y="186" text-anchor="middle">33</text>
<line class="grid" x1="654.0" y1="50" x2="654.0" y2="160"/>
<text class="axis" x="654.0" y="186" text-anchor="middle">50</text>
<line class="grid" x1="782.0" y1="50" x2="782.0" y2="160"/>
<text class="axis" x="782.0" y="186" text-anchor="middle">66</text>
<line class="grid" x1="910.0" y1="50" x2="910.0" y2="160"/>
<text class="axis" x="910.0" y="186" text-anchor="middle">83</text>
<text class="label" x="260" y="77" text-anchor="end">429_resource_exhausted</text>
<rect x="270" y="63" width="640.0" height="20" rx="2" fill="#e15759"/>
<text class="small" x="916.0" y="78">83</text>
<text class="label" x="260" y="109" text-anchor="end">401_auth</text>
<rect x="270" y="95" width="115.7" height="20" rx="2" fill="#e15759"/>
<text class="small" x="391.7" y="110">15</text>
<text class="label" x="260" y="141" text-anchor="end">403_consumer_suspended</text>
<rect x="270" y="127" width="92.5" height="20" rx="2" fill="#e15759"/>
<text class="small" x="368.5" y="142">12</text>
<text class="axis" x="590.0" y="200" text-anchor="middle">failure cells</text>
</svg>
