<svg xmlns="http://www.w3.org/2000/svg" width="980" height="520" viewBox="0 0 980 520">
<rect width="100%" height="100%" fill="white"/>
<text x="490.0" y="30.0" font-family="Arial" font-size="18" font-weight="700" text-anchor="middle" fill="#222">EXP07: framework/model interaction</text>
<line x1="80" y1="400.0" x2="940" y2="400.0" stroke="#ddd"/>
<text x="68.0" y="404.0" font-family="Arial" font-size="11" font-weight="400" text-anchor="end" fill="#222">0.0</text>
<line x1="80" y1="333.0" x2="940" y2="333.0" stroke="#ddd"/>
<text x="68.0" y="337.0" font-family="Arial" font-size="11" font-weight="400" text-anchor="end" fill="#222">0.2</text>
<line x1="80" y1="266.0" x2="940" y2="266.0" stroke="#ddd"/>
<text x="68.0" y="270.0" font-family="Arial" font-size="11" font-weight="400" text-anchor="end" fill="#222">0.4</text>
<line x1="80" y1="199.0" x2="940" y2="199.0" stroke="#ddd"/>
<text x="68.0" y="203.0" font-family="Arial" font-size="11" font-weight="400" text-anchor="end" fill="#222">0.6</text>
<line x1="80" y1="132.0" x2="940" y2="132.0" stroke="#ddd"/>
<text x="68.0" y="136.0" font-family="Arial" font-size="11" font-weight="400" text-anchor="end" fill="#222">0.8</text>
<line x1="80" y1="65.0" x2="940" y2="65.0" stroke="#ddd"/>
<text x="68.0" y="69.0" font-family="Arial" font-size="11" font-weight="400" text-anchor="end" fill="#222">1.0</text>
<polyline points="80.0,296.7 510.0,95.7 940.0,65.0" fill="none" stroke="#2f6f9f" stroke-width="3"/>
<circle cx="80.0" cy="296.7" r="4" fill="#2f6f9f"/>
<circle cx="510.0" cy="95.7" r="4" fill="#2f6f9f"/>
<circle cx="940.0" cy="65.0" r="4" fill="#2f6f9f"/>
<rect x="80" y="485" width="14" height="14" fill="#2f6f9f"/>
<text x="100.0" y="497.0" font-family="Arial" font-size="11" font-weight="400" text-anchor="start" fill="#222">natural</text>
<polyline points="80.0,170.5 510.0,104.1 940.0,65.0" fill="none" stroke="#7a9f35" stroke-width="3"/>
<circle cx="80.0" cy="170.5" r="4" fill="#7a9f35"/>
<circle cx="510.0" cy="104.1" r="4" fill="#7a9f35"/>
<circle cx="940.0" cy="65.0" r="4" fill="#7a9f35"/>
<rect x="240" y="485" width="14" height="14" fill="#7a9f35"/>
<text x="260.0" y="497.0" font-family="Arial" font-size="11" font-weight="400" text-anchor="start" fill="#222">compressed</text>
<polyline points="80.0,268.8 510.0,112.5 940.0,65.0" fill="none" stroke="#b66a36" stroke-width="3"/>
<circle cx="80.0" cy="268.8" r="4" fill="#b66a36"/>
<circle cx="510.0" cy="112.5" r="4" fill="#b66a36"/>
<circle cx="940.0" cy="65.0" r="4" fill="#b66a36"/>
<rect x="400" y="485" width="14" height="14" fill="#b66a36"/>
<text x="420.0" y="497.0" font-family="Arial" font-size="11" font-weight="400" text-anchor="start" fill="#222">hybrid_state</text>
<text x="80.0" y="450.0" font-family="Arial" font-size="10" font-weight="400" text-anchor="middle" fill="#222">langgraph\ngpt_5_4_high</text>
<text x="510.0" y="450.0" font-family="Arial" font-size="10" font-weight="400" text-anchor="middle" fill="#222">langgraph\ngpt_chat_latest</text>
<text x="940.0" y="450.0" font-family="Arial" font-size="10" font-weight="400" text-anchor="middle" fill="#222">openfang\ngpt_chat_latest</text>
</svg>
